<svg width="30" height="30" viewBox="0 0 30 30" fill="none" xmlns="http://www.w3.org/2000/svg">
<path fill-rule="evenodd" clip-rule="evenodd" d="M14.5144 4.12754C14.8188 4.04092 15.1398 4.04084 15.4442 4.1272C16.0911 4.31079 16.744 4.48107 17.399 4.65191C20.475 5.45417 23.5991 6.26895 26.3784 8.53272L27.6584 9.57521C28.1775 9.99806 28.4373 10.624 28.4375 11.25V20C28.4375 20.5178 28.0178 20.9375 27.5 20.9375C26.9822 20.9375 26.5625 20.5178 26.5625 20V13.8208L26.3588 13.987C25.3958 14.7729 24.391 15.3832 23.361 15.8786C23.4102 15.9925 23.4375 16.118 23.4375 16.25V21.6174C23.4375 23.034 22.5685 24.3056 21.2486 24.8201L16.2486 26.7694C15.4456 27.0825 14.5544 27.0825 13.7514 26.7694L8.75138 24.8201C7.43153 24.3056 6.5625 23.034 6.5625 21.6174V16.25C6.5625 16.1147 6.59116 15.9861 6.64273 15.87C5.60479 15.3717 4.59216 14.7578 3.62156 13.9673L2.34163 12.9248C1.3033 12.0791 1.30276 10.4212 2.34018 9.57459L3.64116 8.51296C6.40046 6.2613 9.50241 5.45138 12.5557 4.65419C13.2121 4.48278 13.8664 4.31197 14.5144 4.12754ZM26.5625 11.2507C26.5625 11.1381 26.517 11.0638 26.4743 11.029L25.1943 9.98652C22.5 8.125 20.0992 7.30399 17.0499 6.5027C16.3794 6.32651 15.6899 6.14532 14.98 5.94448C14.2669 6.14678 13.5749 6.32883 12.9021 6.50581C9.87725 7.3016 7.24153 7.99501 4.8266 9.96566L3.52563 11.0273C3.48289 11.0622 3.43745 11.1366 3.4375 11.2493C3.43755 11.3619 3.48304 11.4362 3.52573 11.471L4.80566 12.5135C7.24106 14.4971 9.90082 15.196 12.9501 15.9973C13.6207 16.1735 14.3101 16.3547 15.02 16.5555C15.7331 16.3532 16.425 16.1712 17.0977 15.9942C20.1226 15.1984 22.7585 14.505 25.1734 12.5343L26.4744 11.4727C26.5171 11.4379 26.5625 11.3632 26.5625 11.2507ZM17.4443 17.8458C18.8191 17.4869 20.2037 17.1253 21.5625 16.6308V21.6174C21.5625 22.2613 21.1675 22.8393 20.5676 23.0732L15.5676 25.0225C15.2026 25.1648 14.7974 25.1648 14.4324 25.0225L9.43244 23.0732C8.83251 22.8393 8.4375 22.2613 8.4375 21.6174V16.6202C9.81096 17.1204 11.2109 17.4855 12.601 17.8481C13.256 18.0189 13.9089 18.1892 14.5558 18.3728C14.8602 18.4592 15.1812 18.4591 15.4856 18.3725C16.1336 18.188 16.7879 18.0172 17.4443 17.8458Z" fill="#2D3D8F"/>
</svg>
